<svg xmlns="http://www.w3.org/2000/svg" width="1024" height="1024" viewBox="0 0 1024 1024">
  <defs>
    <linearGradient id="tile" x1="0" y1="0" x2="1" y2="1">
      <stop offset="0" stop-color="#8893f7"/>
      <stop offset="1" stop-color="#5560c9"/>
    </linearGradient>
  </defs>
  <!-- macOS icon grid: 824x824 rounded tile centered in a 1024 canvas (100px safe-area margin) -->
  <rect x="100" y="100" width="824" height="824" rx="185" ry="185" fill="url(#tile)"/>
  <!-- lucide hard-drive glyph, centered, white, scaled from its 24x24 box -->
  <g transform="translate(512,512) scale(18.5)" fill="none" stroke="#ffffff" stroke-width="1.55" stroke-linecap="round" stroke-linejoin="round">
    <g transform="translate(-12,-12)">
      <line x1="22" x2="2" y1="12" y2="12"/>
      <path d="M5.45 5.11 2 12v6a2 2 0 0 0 2 2h16a2 2 0 0 0 2-2v-6l-3.45-6.89A2 2 0 0 0 16.76 4H7.24a2 2 0 0 0-1.79 1.11z"/>
      <line x1="6" x2="6.01" y1="16" y2="16"/>
      <line x1="10" x2="10.01" y1="16" y2="16"/>
    </g>
  </g>
</svg>
